<?xml version="1.0" encoding="UTF-8"?>
<svg xmlns="http://www.w3.org/2000/svg" viewBox="0 0 16 16">
  <defs>
    <style>
      .c {
        fill: #169133;
      }

      .d {
        fill: #1b1b1b;
      }

      .e {
        fill: none;
      }
    </style>
  </defs>
  <g id="a" data-name="Слой 2">
    <path class="c" d="M2.21,11.17c1.92-3.01,3.83-6.01,5.75-9.02,2.04,3.02,4.09,6.03,6.13,9.05-3.96,0-7.92-.02-11.88-.03l1.04-.49c3.23,0,6.46-.02,9.7-.03-1.66-2.44-3.33-4.89-4.99-7.33L3.25,10.68l-1.04,.49Z"/>
    <rect class="e" width="16" height="16"/>
  </g>
  <g id="b" data-name="Слой 1">
    <g>
      <path class="d" d="M14.18,6.46c-.54,1.29-2.05,1.4-2.96,2.32,1.45-1.02-1.22-2.95-1.58-2.03,1.33,2.33-2.33,3.26-.15,2.85-1.6,.6-4.14,.62-5.26-.35-3.42,0,2.02-3.9,3.5-3.27,.21,.08,.99,.07,.81-.28,.78-.66,3.42,1.29,3.67,2.16,.06,.16,.31,.04,.18-.11-.05-.06-.07-.16,.06-.15,.79,.05,1.25-.71,1.73-1.14Zm-7.82,0c-4.8,.83-1.36,4,1.6,3.33-1.6-.04-2.85-1.97-1.6-3.33Zm2.83,.44c.47,2.88-3.55,2.04-2.25,.13,.19-.06-.27-.52-.32-.3-2.77,3.31,5.02,3.55,2.57,.17Zm-.85,.6c.46,.02,.36-.67-.03-.66-.45-.02-.42,.69,.03,.66Zm-4.51,.45c-1.31,.73,.24,1.7,.1,.63-.08-.2-.2-.37-.1-.63Z"/>
      <path class="d" d="M8.56,5.42c-2.49-.16-5.41,.64-6.51,3.37,.71-2.75,3.87-4.19,6.51-3.37Z"/>
      <path class="d" d="M3.5,9.67c.13,0,.25-.08,.36,.04,.11,.05,.35-.21,.37,.07,.85,1.57,3.35,1.92,5.01,1.69-.74,.82-4.32-.03-5.75-1.8Z"/>
      <path class="d" d="M2.82,2.99c.38,.46,2.16,1.27,1.62,1.67-.57-.38-1.22-1.11-1.62-1.67Z"/>
      <path class="d" d="M12.66,2.85c-.44,.62-.92,1.34-1.42,1.86-.31-.62,1.03-1.46,1.42-1.86Z"/>
      <path class="d" d="M9.63,1.48c-.18,.51-.17,2.52-.7,2.13,.05-.69,.46-1.45,.7-2.13Z"/>
      <path class="d" d="M2.23,11.62c.5-.47,1.03-1.05,1.56-1.41,.29,.47-1.19,1.15-1.56,1.41Z"/>
      <path class="d" d="M8.14,14.18c-.02-.63-.21-1.39-.1-1.96,.5,.24,.13,1.51,.1,1.96Z"/>
      <path class="d" d="M13.26,11.49c-.49-.2-1.09-.59-1.45-.91,.42-.31,1.01,.67,1.45,.91Z"/>
      <path class="d" d="M5.95,2.26c.24,.4,.46,.82,.67,1.23-.41,.1-.61-.98-.67-1.23Z"/>
      <path class="d" d="M9.91,11.25c.52-.16,.82-.75,1.32-.78-.32,.36-.83,.69-1.32,.78Z"/>
      <path class="d" d="M12.64,2.83s.02-.02,.03-.02c.03,.02,0,.06-.03,.02Z"/>
    </g>
  </g>
</svg>